# xmcd CD database file
#
# Track frame offsets:
#	150
#	22745
#	38319
#	58037
#
# Disc length: 1012 seconds
#
# Revision: 1
# Processed by: cddbd v1.5.2PL0 Copyright (c) Steve Scherf et al.
# Submitted via: CDex 1.70beta2
#
DISCID=1f03f204
DTITLE=MiChi - PROMiSE (AICL_1967)
DYEAR=2008
DGENRE=Japanese Pop
TTITLE0=PROMiSE
TTITLE1=HEy GriL
TTITLE2=Sk8er Boi
TTITLE3=Fxxk You And Your Money [ED BANGER STARS remix]
EXTD=2008.10.22. YEAR: 2008
EXTT0=
EXTT1=
EXTT2=
EXTT3=
PLAYORDER=
